HIERARCHY
ROOT Hips
{
  OFFSET -35.4901 99.2528 17.4586
  CHANNELS 6 Xposition Yposition Zposition Zrotation Xrotation Yrotation
  JOINT LeftUpLeg
  {
    OFFSET 8.64259 1.95398 -2.38835
    CHANNELS 3 Zrotation Xrotation Yrotation
    JOINT LeftLeg
    {
      OFFSET 43.7702 0 0
      CHANNELS 3 Zrotation Xrotation Yrotation
      JOINT LeftFoot
      {
        OFFSET 40.6238 0 0
        CHANNELS 3 Zrotation Xrotation Yrotation
        JOINT LeftToeBase
        {
          OFFSET 12.7242 0 0
          CHANNELS 3 Zrotation Xrotation Yrotation
          End Site
          {
            OFFSET 0 0 0
          }
        }
      }
    }
  }
  JOINT RightUpLeg
  {
    OFFSET -8.2249 1.95398 -2.59336
    CHANNELS 3 Zrotation Xrotation Yrotation
    JOINT RightLeg
    {
      OFFSET 43.5653 0 0
      CHANNELS 3 Zrotation Xrotation Yrotation
      JOINT RightFoot
      {
        OFFSET 40.6238 0 0
        CHANNELS 3 Zrotation Xrotation Yrotation
        JOINT RightToeBase
        {
          OFFSET 12.7242 0 0
          CHANNELS 3 Zrotation Xrotation Yrotation
          End Site
          {
            OFFSET 0 0 0
          }
        }
      }
    }
  }
  JOINT Spine
  {
    OFFSET 0.165834 0.87714 6.61349
    CHANNELS 3 Zrotation Xrotation Yrotation
    JOINT Spine1
    {
      OFFSET 7.38963 1.71661e-005 0
      CHANNELS 3 Zrotation Xrotation Yrotation
      JOINT Spine2
      {
        OFFSET 11.9445 1.14441e-005 0
        CHANNELS 3 Zrotation Xrotation Yrotation
        JOINT Spine3
        {
          OFFSET 14.7254 4.19617e-005 0
          CHANNELS 3 Zrotation Xrotation Yrotation
          JOINT Spine4
          {
            OFFSET 10.9679 0 0
            CHANNELS 3 Zrotation Xrotation Yrotation
            JOINT RightShoulder
            {
              OFFSET 2.46616 -1.6653 3.69651
              CHANNELS 3 Zrotation Xrotation Yrotation
              JOINT RightArm
              {
                OFFSET 13.0012 0 0
                CHANNELS 3 Zrotation Xrotation Yrotation
                JOINT RightForeArm
                {
                  OFFSET 28.7848 1.52588e-005 0
                  CHANNELS 3 Zrotation Xrotation Yrotation
                  JOINT RightHand
                  {
                    OFFSET 26.5688 1.52588e-005 0
                    CHANNELS 3 Zrotation Xrotation Yrotation
                    End Site
                    {
                      OFFSET 0 0 0
                    }
                  }
                }
              }
            }
            JOINT LeftShoulder
            {
              OFFSET 2.38034 -1.29275 -3.7523
              CHANNELS 3 Zrotation Xrotation Yrotation
              JOINT LeftArm
              {
                OFFSET 16.3182 6.10351e-005 0
                CHANNELS 3 Zrotation Xrotation Yrotation
                JOINT LeftForeArm
                {
                  OFFSET 27.0901 0 0
                  CHANNELS 3 Zrotation Xrotation Yrotation
                  JOINT LeftHand
                  {
                    OFFSET 24.5451 1.52588e-005 0
                    CHANNELS 3 Zrotation Xrotation Yrotation
                    End Site
                    {
                      OFFSET 0 0 0
                    }
                  }
                }
              }
            }
            JOINT Neck
            {
              OFFSET 5.0226 -0.0266342 0
              CHANNELS 3 Zrotation Xrotation Yrotation
              JOINT Head
              {
                OFFSET 6.69364 2.86102e-005 0
                CHANNELS 3 Zrotation Xrotation Yrotation
                End Site
                {
                  OFFSET 0 0 0
                }
              }
            }
          }
        }
      }
    }
  }
}
MOTION
Frames:	10
Frame Time:	0.0416667
-90.3773 84.7011 -82.2356 -113.892 42.6412 -77.1588 -171.837 28.7611 86.7935 -68.3029 16.4655 0.428968 72.7294 6.46826 6.54125 26.2206 3.30667 -5.07729 178.662 29.9519 82.3967 -100.184 -8.2368 -1.42331 77.0292 -9.64623 -5.8765 12.464 -2.79569 6.9065 0.0661982 9.83253 -89.4875 7.20618 0.353082 0.99447 -4.46511 0.396503 0.977961 -26.9972 0.0378939 1.0546 -6.98457 0.0378934 1.0546 94.807 -17.9783 -100.668 48.9742 0.0247616 13.0661 -31.2645 -30.4518 -55.5869 -23.3533 0.113407 -11.8997 -85.6321 -33.5593 82.4845 -7.34122 7.25227 -14.478 53.7297 -8.45735 -86.4323 3.50672 -0.675148 -15.7178 2.03289 1.77516 -4.61186 -3.45232 2.4486 2.09098 
-93.9649 84.7816 -86.1912 -111.557 43.5733 -77.7155 -169.517 29.6487 88.5154 -72.8123 19.1633 0.227022 72.4351 6.3367 8.68532 31.1611 4.07746 -7.56654 176.922 40.2911 85.4805 -93.9079 -4.32155 -0.962645 73.5374 -8.20976 -6.50352 13.7813 -3.50735 8.29429 -0.172738 9.97663 -89.624 6.92049 -0.183895 0.748775 -4.75066 -0.150759 0.756137 -27.2845 -0.400429 0.658899 -7.27184 -0.400411 0.65889 94.9093 -14.3862 -101.796 46.2299 1.3709 18.0731 -34.1679 -26.4221 -61.2499 -25.9881 0.220989 -11.5663 -85.2027 -27.1639 81.9002 -5.26818 1.25275 -22.2628 54.0339 -9.375 -88.6297 3.49154 -0.606568 -14.4191 0.312835 3.17515 -2.63689 -0.69159 3.54135 2.97237 
-97.1447 85.1857 -89.6241 -109.433 41.5205 -78.8654 -167.315 32.5234 89.4606 -77.4226 21.7969 0.483786 62.6676 1.24303 9.23885 40.2109 6.94649 -15.8749 170.811 45.8311 87.8366 -82.0381 3.98654 0.611723 68.8947 -5.99043 -6.51151 13.1231 -2.75714 6.83932 -0.627825 10.2808 -89.7308 6.31487 -1.14011 0.567673 -5.35577 -1.11402 0.6173 -27.8944 -1.25801 0.198742 -7.88181 -1.258 0.198739 93.9277 -12.8198 -105.186 40.2735 7.38904 23.0376 -33.6914 -21.2541 -66.9819 -29.1621 0.22972 -10.1556 -84.6518 -20.6997 81.4409 -3.43294 -6.21747 -28.506 54.221 -8.20103 -89.4556 4.64625 -0.684998 -14.054 -1.48025 4.29419 -1.87241 2.86594 4.63656 3.80361 
-100.53 85.2964 -93.2173 -108.467 37.7803 -79.7271 -164.51 36.5352 89.9686 -83.8505 24.4447 0.939611 53.5576 -3.47488 8.05979 24.0474 8.38409 -12.6933 165.539 46.3408 87.2738 -67.5783 6.7604 3.34926 63.837 -2.85541 -4.26038 13.7594 -1.78919 5.03221 -1.06377 10.8122 -89.9122 5.25118 -2.08905 0.213059 -6.41811 -2.07765 0.304822 -28.9664 -2.05646 -0.424911 -8.95377 -2.05645 -0.424918 93.6483 -11.008 -106.912 35.7034 14.5804 23.4922 -34.1335 -18.8291 -72.9591 -34.99 -0.556754 -6.38697 -84.0056 -13.8044 80.8961 -7.4261 -12.3361 -36.0044 52.863 -2.80159 -86.1198 5.33681 -0.765986 -14.3734 0.177333 4.53528 -2.56769 2.3708 5.06285 6.20692 
-104.101 84.6388 -97.2004 -106.488 35.5547 -80.9158 -160.111 41.7079 90.0959 -88.9559 15.8587 -0.248842 54.3266 -3.22741 8.71116 25.788 6.84067 -10.5771 162.797 45.4838 85.9187 -52.6984 0.691342 6.01256 59.892 -0.43748 -1.47939 16.1089 -2.77577 6.97788 -1.1963 11.0987 -90.1452 4.67287 -2.44974 -0.254321 -6.99577 -2.45852 -0.146201 -29.5471 -2.25997 -0.979166 -9.53446 -2.25997 -0.979171 94.2282 -9.26628 -106.238 35.0421 17.5262 16.4012 -36.9419 -18.9288 -77.1222 -45.7692 -1.5485 -3.82072 -84.4992 -11.1065 78.694 -12.9161 -15.5897 -44.3496 55.6151 4.86396 -80.8977 4.37872 -0.610175 -13.1629 -0.714843 4.49912 -2.27346 3.61418 5.07342 6.91957 
-107.621 83.4026 -101.541 -105.039 34.7129 -82.0984 -154.247 47.0578 89.6933 -90.848 11.7461 -2.25298 60.7698 0.103847 7.97766 23.5237 6.40478 -9.27606 162.693 44.2464 84.4978 -43.3513 -0.688068 6.7017 60.3936 -0.587744 -1.5831 16.2282 -2.75273 6.94242 -1.21405 11.2774 -90.1936 4.31392 -2.50437 -0.359972 -7.35463 -2.51779 -0.249338 -29.9061 -2.28034 -1.09636 -9.89348 -2.28034 -1.09636 95.3925 -9.98547 -102.437 38.0488 13.4701 0.531018 -37.0041 -17.4209 -77.9983 -48.1705 -2.96376 -0.31894 -85.2028 -12.5305 77.4021 -18.4763 -14.3785 -53.4394 61.2531 14.9573 -76.0814 2.97063 -0.441393 -11.8417 -0.257626 4.3157 -2.05089 2.13285 4.75181 6.06422 
-111.312 81.2014 -106.058 -105.026 32.9859 -83.0565 -149.116 51.3586 88.0687 -89.2827 18.7843 -3.97843 61.4502 0.548499 6.90591 22.709 6.43102 -9.10387 163.478 43.8297 81.335 -44.443 3.17703 6.14118 60.2121 -0.141975 -1.62089 16.2762 -2.10949 5.60869 -1.23511 11.5967 -90.0469 3.6789 -2.48643 -0.0915638 -7.98966 -2.48804 0.0180138 -30.5424 -2.34391 -0.835026 -10.5297 -2.3439 -0.835029 95.0962 -12.0971 -102.318 39.8548 10.6044 -15.4524 -41.2255 -19.9173 -76.5276 -44.5202 -3.27248 0.622021 -86.1408 -13.7772 75.5394 -22.4668 -11.9009 -60.6653 65.3112 25.8755 -71.8142 2.39265 -0.300998 -9.42588 0.520184 3.50507 -4.48011 2.43089 4.37263 7.06667 
-115.039 78.1575 -110.644 -105.3 32.0856 -84.081 -142.98 54.9757 85.2344 -84.9186 25.5481 -6.64391 58.4861 -0.987908 5.39337 23.5922 6.77407 -9.8521 162.404 49.4432 78.9314 -57.4059 -1.03162 7.05171 62.6709 -0.564351 -5.58282 -1.2364 -1.40455 4.71493 -1.09877 11.8057 -89.9057 3.26273 -2.15745 0.170763 -8.40644 -2.14782 0.265588 -30.9555 -2.10898 -0.485833 -10.9429 -2.10899 -0.485844 94.718 -12.3987 -103.212 40.7216 7.34862 -29.9537 -42.3573 -27.6573 -68.342 -44.7252 -4.59504 3.8344 -87.2272 -16.2051 73.8962 -22.7108 -7.91182 -65.8981 63.4701 36.2099 -65.6852 3.64702 -0.273482 -7.9465 0.514701 2.5896 -4.66381 3.37457 3.50207 6.07213 
-118.669 74.0746 -114.94 -106.968 32.6718 -84.1494 -138.245 57.8174 83.7878 -80.8953 26.8699 -9.8405 61.2495 0.175004 3.52457 20.0472 7.02861 -9.28419 159.539 55.7915 79.0181 -73.7388 -4.14835 5.24676 67.4647 -4.02788 -8.171 8.40842 -2.5139 6.3186 -0.844407 12.1156 -89.7814 2.64463 -1.60086 0.404301 -9.02541 -1.58154 0.474374 -31.5685 -1.64835 -0.0956519 -11.5558 -1.64836 -0.0956554 94.2478 -11.6473 -104.887 39.401 4.36388 -43.6202 -35.6859 -39.6681 -52.1704 -47.1089 -5.17371 4.40174 -88.3094 -19.6906 72.8918 -21.545 -4.36332 -68.2118 61.0463 41.8072 -62.2609 2.29261 -0.11105 -4.87351 1.84504 1.79444 -4.35944 2.8747 2.65643 5.09688 
-121.812 70.5763 -118.691 -109.676 34.6106 -79.6447 -138.577 61.7823 88.0983 -77.2297 26.0306 -10.6931 60.7022 0.0684409 1.12655 22.9278 4.52868 -6.3358 154.885 57.635 83.6558 -85.0281 -7.42687 4.25089 69.3089 -5.52584 -9.94314 6.11948 -3.17682 7.36862 -0.286964 12.7139 -90.1046 1.44522 -0.612653 -0.22172 -10.2256 -0.62181 -0.194551 -32.7616 -0.51769 -0.395608 -12.7489 -0.517693 -0.395608 93.2043 -8.99768 -109.395 31.0479 4.54633 -53.2594 -14.5675 -40.4015 -28.2317 -44.8428 -4.30822 3.48278 -89.712 -23.8309 71.5806 -19.8166 -3.02843 -72.1806 58.2878 48.7607 -57.7735 -0.00631352 -0.110971 -5.53136 6.02648 1.37016 -3.41188 1.61889 2.13488 4.37265 
